<svg width="33" height="33" viewBox="0 0 33 33" fill="none" xmlns="http://www.w3.org/2000/svg">
<path d="M16.9057 13.7782L17.5243 13.6016L22.1834 13.514C22.9103 13.3937 23.6376 13.7923 23.9271 14.4759L24.0475 14.7064L26.084 20.5474C26.2299 20.9562 26.2467 21.3988 26.0662 21.809C25.9304 22.2185 25.6365 22.5413 25.2553 22.7404L19.1575 25.9265C18.7232 26.1534 18.241 26.2023 17.7865 26.0449L9.71282 23.5276L10.0474 22.2245C10.1443 21.8918 10.4163 21.5917 10.7446 21.4427L11.0017 21.3084L14.9232 20.241L10.0607 10.9348C9.81507 10.4646 9.76624 9.91619 9.92498 9.41006C10.0837 8.90394 10.437 8.4816 10.9071 8.23596C11.3773 7.99032 11.9257 7.9415 12.4318 8.10023C12.938 8.25897 13.3603 8.61226 13.6059 9.08239L16.241 14.1255L16.9057 13.7782Z" fill="black"/>
</svg>
